<?xml version="1.0" encoding="utf-8"?>
<!-- Generator: Adobe Illustrator 14.0.0, SVG Export Plug-In . SVG Version: 6.00 Build 43363)  -->
<!DOCTYPE svg PUBLIC "-//W3C//DTD SVG 1.1//EN" "http://www.w3.org/Graphics/SVG/1.1/DTD/svg11.dtd">
<svg version="1.1" id="Layer_1" xmlns="http://www.w3.org/2000/svg" xmlns:xlink="http://www.w3.org/1999/xlink" x="0px" y="0px"
	 width="32px" height="32px" viewBox="0 0 32 32" enable-background="new 0 0 32 32" xml:space="preserve">
<path d="M26.168,0H4.834C1.9,0-0.5,2.4-0.5,5.334v21.332C-0.5,29.602,1.9,32,4.834,32h21.334c2.934,0,5.332-2.398,5.332-5.334V5.334
	C31.5,2.401,29.102,0,26.168,0z M15.655,29.999c-7.641,0-13.833-6.192-13.833-13.833c0-7.641,6.193-13.834,13.833-13.834
	c7.642,0,13.834,6.193,13.834,13.834C29.489,23.807,23.297,29.999,15.655,29.999z M23.871,7.949c1.068,1.068,1.907,2.31,2.492,3.693
	c0.606,1.431,0.912,2.953,0.912,4.521c0,1.569-0.306,3.091-0.912,4.521c-0.585,1.385-1.424,2.625-2.492,3.694v0.001
	c-1.066,1.067-2.31,1.906-3.693,2.49c-0.353,0.149-0.709,0.28-1.069,0.393v-2.074c0-1.089-0.375-1.891-1.123-2.403
	c0.468-0.046,0.9-0.108,1.291-0.19c0.391-0.081,0.805-0.197,1.243-0.35c0.437-0.154,0.828-0.335,1.176-0.548
	c0.345-0.212,0.679-0.486,0.999-0.825c0.318-0.336,0.587-0.718,0.803-1.146c0.217-0.428,0.388-0.942,0.513-1.541
	c0.128-0.599,0.19-1.258,0.19-1.978c0-1.396-0.454-2.585-1.363-3.567c0.412-1.081,0.368-2.256-0.137-3.526l-0.338-0.041
	c-0.234-0.027-0.654,0.071-1.262,0.297c-0.609,0.226-1.29,0.595-2.047,1.107c-1.072-0.297-2.185-0.446-3.336-0.446
	c-1.162,0-2.27,0.149-3.323,0.446c-0.478-0.324-0.93-0.593-1.358-0.804c-0.429-0.212-0.771-0.356-1.028-0.432
	C9.752,9.166,9.513,9.119,9.293,9.101C9.072,9.083,8.93,9.078,8.867,9.087C8.805,9.096,8.759,9.105,8.733,9.114
	c-0.504,1.279-0.549,2.455-0.135,3.526c-0.91,0.981-1.364,2.17-1.364,3.566c0,0.72,0.063,1.38,0.189,1.98
	c0.126,0.599,0.297,1.111,0.513,1.54c0.216,0.427,0.484,0.811,0.804,1.147c0.32,0.338,0.652,0.612,1,0.825
	c0.347,0.211,0.739,0.393,1.175,0.547c0.437,0.152,0.851,0.27,1.243,0.351c0.393,0.079,0.822,0.144,1.29,0.189
	c-0.739,0.504-1.107,1.305-1.107,2.404v2.113c-0.409-0.12-0.811-0.265-1.206-0.433c-1.383-0.584-2.625-1.422-3.693-2.49
	c-1.067-1.069-1.906-2.31-2.49-3.694c-0.606-1.431-0.913-2.952-0.913-4.521s0.307-3.091,0.913-4.521
	c0.584-1.383,1.423-2.625,2.49-3.693c1.068-1.067,2.311-1.905,3.693-2.491c1.431-0.605,2.954-0.912,4.522-0.912
	c1.568,0,3.091,0.307,4.522,0.912C21.563,6.044,22.807,6.882,23.871,7.949z"/>
</svg>
