<?xml version="1.0" encoding="utf-8"?>
<!-- Generator: Adobe Illustrator 14.0.0, SVG Export Plug-In . SVG Version: 6.00 Build 43363)  -->
<!DOCTYPE svg PUBLIC "-//W3C//DTD SVG 1.1//EN" "http://www.w3.org/Graphics/SVG/1.1/DTD/svg11.dtd">
<svg version="1.1" id="Layer_1" xmlns="http://www.w3.org/2000/svg" xmlns:xlink="http://www.w3.org/1999/xlink" x="0px" y="0px"
	 width="32px" height="32px" viewBox="134 134 32 32" enable-background="new 134 134 32 32" xml:space="preserve">
<path d="M160.625,134h-21.25c-2.956,0-5.375,2.419-5.375,5.375v21.25c0,2.956,2.419,5.375,5.375,5.375h21.25
	c2.956,0,5.375-2.419,5.375-5.375v-21.25C166,136.419,163.581,134,160.625,134z M138,160.102h1.528c0.498,0,0.782-0.249,0.782-0.781
	v-21.987h2.273l12.75,17.796c0.853,1.241,2.025,3.268,2.025,3.268h0.071c0,0-0.178-1.954-0.178-3.268v-15.63
	c0-1.527,0.64-2.167,2.167-2.167h2.628v2.203h-1.528c-0.496,0-0.78,0.249-0.78,0.781v21.989h-2.272l-12.751-17.797
	c-0.888-1.207-2.06-3.232-2.06-3.232h-0.071c0,0,0.213,1.919,0.213,3.232v15.629c0,1.526-0.639,2.168-2.167,2.168H138V160.102z"/>
</svg>
