<?xml version="1.0" encoding="utf-8"?>
<!-- Generator: Adobe Illustrator 14.0.0, SVG Export Plug-In . SVG Version: 6.00 Build 43363)  -->
<!DOCTYPE svg PUBLIC "-//W3C//DTD SVG 1.1//EN" "http://www.w3.org/Graphics/SVG/1.1/DTD/svg11.dtd">
<svg version="1.1" id="Layer_1" xmlns="http://www.w3.org/2000/svg" xmlns:xlink="http://www.w3.org/1999/xlink" x="0px" y="0px"
	 width="32px" height="32px" viewBox="0 0 32 32" enable-background="new 0 0 32 32" xml:space="preserve">
<path d="M0,26V6.124C0,4.48,0.583,3.076,1.749,1.909C2.917,0.743,4.321,0.16,5.963,0.16h19.877c1.643,0,3.047,0.583,4.213,1.749
	c1.167,1.167,1.751,2.571,1.751,4.214V26c0,1.644-0.584,3.049-1.751,4.214c-1.166,1.167-2.57,1.75-4.213,1.75H5.963
	c-1.643,0-3.047-0.583-4.214-1.75C0.583,29.049,0,27.644,0,26z M5.3,26.663h5.963l11.263-11.262l-5.963-5.964L5.3,20.7V26.663z
	 M7.289,22.688v-1.159l1.077-1.077l3.147,3.147l-1.077,1.076h-1.16v-1.987H7.289z M10.228,19.086
	c-0.193-0.18-0.172-0.388,0.062-0.623l6.024-6.024c0.235-0.235,0.442-0.256,0.622-0.062c0.193,0.179,0.173,0.387-0.062,0.622
	l-6.025,6.024C10.614,19.259,10.407,19.278,10.228,19.086z M17.891,8.112l5.963,5.963l1.904-1.905
	c0.388-0.387,0.58-0.856,0.58-1.408c0-0.552-0.192-1.021-0.58-1.408l-3.146-3.146c-0.386-0.387-0.854-0.58-1.407-0.58
	s-1.021,0.193-1.408,0.58L17.891,8.112z"/>
</svg>
