<?xml version="1.0" encoding="utf-8"?>
<!-- Generator: Adobe Illustrator 14.0.0, SVG Export Plug-In . SVG Version: 6.00 Build 43363)  -->
<!DOCTYPE svg PUBLIC "-//W3C//DTD SVG 1.1//EN" "http://www.w3.org/Graphics/SVG/1.1/DTD/svg11.dtd">
<svg version="1.1" id="Layer_1" xmlns="http://www.w3.org/2000/svg" xmlns:xlink="http://www.w3.org/1999/xlink" x="0px" y="0px"
	 width="32px" height="32px" viewBox="0 0 32 32" enable-background="new 0 0 32 32" xml:space="preserve">
<path d="M26.625,0H5.375C2.419,0,0,2.419,0,5.375v21.25C0,29.581,2.419,32,5.375,32h21.25C29.581,32,32,29.581,32,26.625V5.375
	C32,2.419,29.581,0,26.625,0z M27.469,17.188l-2.531-2.531l-6.75,5.906v5.906l-4.641-4.641L4.039,29H3v-1.038l7.172-9.509
	l-4.641-4.641h5.906l5.906-6.75l-2.531-2.531L17.344,2L30,14.656L27.469,17.188z M14.812,16.344l-1.688-1.688l5.906-5.906
	l1.688,1.688L14.812,16.344z"/>
</svg>
