<?xml version="1.0" encoding="utf-8"?>
<!-- Generator: Adobe Illustrator 14.0.0, SVG Export Plug-In . SVG Version: 6.00 Build 43363)  -->
<!DOCTYPE svg PUBLIC "-//W3C//DTD SVG 1.1//EN" "http://www.w3.org/Graphics/SVG/1.1/DTD/svg11.dtd">
<svg version="1.1" id="Layer_1" xmlns="http://www.w3.org/2000/svg" xmlns:xlink="http://www.w3.org/1999/xlink" x="0px" y="0px"
	 width="32px" height="32px" viewBox="-3.5 0 32 32" enable-background="new -3.5 0 32 32" xml:space="preserve">
<path d="M23.125,0H1.875C-1.081,0-3.5,2.419-3.5,5.375v21.25C-3.5,29.581-1.081,32,1.875,32h21.25c2.956,0,5.375-2.419,5.375-5.375
	V5.375C28.5,2.419,26.081,0,23.125,0z M2.642,29.167V18.208h1.802v9.202h13.817v-9.202h1.786v10.438l-0.015,0.521v0.015
	L2.642,29.167z M5.932,25.624v-2.249l10.527-0.016v2.248L5.932,25.624z M6.022,21.751l0.208-2.232l10.482,0.967l-0.194,2.234
	L6.022,21.751z M6.662,16.987l0.58-2.173l10.169,2.725l-0.58,2.172L6.662,16.987z M8.524,11.552L9.67,9.618l9.068,5.36l-1.146,1.936
	L8.524,11.552z M13.169,5.97l1.86-1.281l5.926,8.709l-1.846,1.266L13.169,5.97z M19.557,2.887l2.22-0.387l1.801,10.377l-2.218,0.387
	L19.557,2.887z"/>
</svg>
